# xmcd
# 
# Track frame offsets:
#     150
#     4675
#     23190
#     46012
#     61570
#     81615
#     99897
# 
# Disc length: 1657
# 
# Revision: 15
# Processed by: cddbd v1.5.2PL0 Copyright (c) Steve Scherf et al.
# Submitted via: BonkEnc v1.0.8
# 
DISCID=43067707
DTITLE=B'z - Friends 2
DYEAR=2004
DGENRE=Rock and Roll
TTITLE0=Friends 2
TTITLE1=SNOW
TTITLE2=傷心
TTITLE3=BABY MOON
TTITLE4=sasanqua 〜 冬の陽
TTITLE5=ある密かな恋
TTITLE6=きみをつれて
EXTD=YEAR: 2004
EXTT0=
EXTT1=
EXTT2=
EXTT3=
EXTT4=
EXTT5=
EXTT6=
PLAYORDER=
